<svg width="1672" height="583" viewBox="0 0 1672 583" fill="none" xmlns="http://www.w3.org/2000/svg">
<path fill-rule="evenodd" clip-rule="evenodd" d="M0 40V44.143V294.186C0 320.645 14.5894 344.947 37.941 357.387L124.045 403.255L127.702 405.203V401.06V147.434C127.702 123.181 114.328 100.904 92.9221 89.5007L3.6566 41.9479L0 40ZM222.824 188.059C234.446 167.376 256.325 154.573 280.049 154.573H399.178L347.579 246.402C335.957 267.086 314.078 279.888 290.353 279.888H171.225L222.824 188.059ZM171.225 291.208V287.049L174.881 289.031L363.627 391.351C384.798 402.828 397.984 424.976 397.984 449.058V547.841V552L394.328 550.018L205.583 447.698C184.411 436.221 171.225 414.072 171.225 389.991V291.208Z" fill="url(#paint0_linear_86_22)"/>
<path d="M536.456 461V113.608H589.32V336.864L590.264 337.336L683.72 230.664H746.496L663.424 323.176L747.912 461H688.44L626.608 359.52L589.32 400.112V461H536.456ZM792.354 461V113.608H845.218V461H792.354ZM947.387 196.68C927.563 196.68 911.987 180.632 911.987 161.28C911.987 142.4 927.563 126.352 947.387 126.352C967.211 126.352 983.259 142.4 983.259 161.28C983.259 180.632 967.211 196.68 947.387 196.68ZM920.955 461V230.664H973.819V461H920.955ZM1046.25 461V230.664H1099.12V262.288H1100.06C1118.94 239.632 1146.79 227.36 1177 227.36C1227.5 227.36 1261.48 256.152 1261.48 325.536V461H1208.62V339.224C1208.62 290.608 1190.21 275.032 1158.59 275.032C1122.72 275.032 1099.12 300.048 1099.12 345.36V461H1046.25ZM1355.78 196.68C1335.95 196.68 1320.38 180.632 1320.38 161.28C1320.38 142.4 1335.95 126.352 1355.78 126.352C1375.6 126.352 1391.65 142.4 1391.65 161.28C1391.65 180.632 1375.6 196.68 1355.78 196.68ZM1329.35 461V230.664H1382.21V461H1329.35ZM1558.48 464.776C1490.52 464.776 1440.96 416.632 1440.96 346.304C1440.96 275.504 1490.52 227.36 1560.37 227.36C1596.24 227.36 1634 241.992 1657.13 270.312L1621.26 301.464C1608.04 285.888 1588.22 275.032 1563.2 275.032C1522.14 275.032 1494.76 303.824 1494.76 345.832C1494.76 388.312 1522.61 416.632 1563.2 416.632C1588.69 416.632 1609.46 405.304 1621.26 389.728L1657.6 421.824C1638.25 446.84 1608.52 464.776 1558.48 464.776Z" fill="#494949"/>
<defs>
<linearGradient id="paint0_linear_86_22" x1="199.589" y1="40" x2="199.589" y2="552" gradientUnits="userSpaceOnUse">
<stop stop-color="#16E2B4"/>
<stop offset="1" stop-color="#0293B4"/>
</linearGradient>
</defs>
</svg>
